<?xml version="1.0" encoding="UTF-8" standalone="no"?>
<svg xmlns="http://www.w3.org/2000/svg" xmlns:xlink="http://www.w3.org/1999/xlink" width="380" height="220">
<defs>
  <marker id="join" viewBox="0,0 1,1" refX="0.5" refY="0.5" markerWidth="6" markerHeight="6">
    <circle r="0.5" cx="0.5" cy="0.5" stroke="none" fill="black" />
  </marker>
  
  <g id="term">
    <circle r="3" stroke="black" fill="white" />
  </g>
  
  <g id="res" fill="none" stroke="black">
    <polyline points="-20,0 -17.5,-6 -12.5,6 -7.5,-6 -2.5,6 2.5,-6 7.5,6 12.5,-6 17.5,6 20,0" stroke-width="1.5" stroke-linecap="round" />
  </g>
  
  <g id="gnd" fill="none" stroke="black" stroke-width="1.5">
    <line x1="-10" y1="0" x2="10" y2="0" />
    <line x1="-6" y1="5" x2="6" y2="5" />
    <line x1="-2" y1="10" x2="2" y2="10" />
  </g>
  
  <g id="opamp" fill="white" stroke="black">
    <polygon points="0,40 80,0 0,-40" />
    <path d="M4,-20 h12 m-6,-6 v12" stroke-width="0.75" />
    <path d="M4,20 h12" stroke-width="0.75" />
  </g>
  
  <g id="cap" fill="black" stroke="none">
    <rect x="-6" y="-10" width="2" height="20" />
    <rect x="4" y="-10" width="2" height="20" />
  </g>
</defs>
  
<g font-family="Times New Roman, serif" font-size="16">
  <use xlink:href="#opamp" transform="translate(220, 80) scale(1, -1)" />
  
  <polyline points="220,100 200,100 200,120 180,120" stroke="black" fill="none" />
  <use xlink:href="#res" x="160" y="120" />
  <text x="160" y="104" text-anchor="middle"><tspan font-style="italic">R</tspan><tspan dy="4" font-size="12">2</tspan></text>
  
  <line x1="140" y1="120" x2="100" y2="120" stroke="black" fill="none" />
  <use xlink:href="#res" x="80" y="120" />
  <text x="80" y="104" text-anchor="middle"><tspan font-style="italic">R</tspan><tspan dy="4" font-size="12">1</tspan></text>
  
  <line x1="60" y1="120" x2="40" y2="120" stroke="black" fill="none" />
  <use xlink:href="#term" x="40" y="120" />
  <text x="32" y="125" text-anchor="end"><tspan font-style="italic">V</tspan><tspan dy="4" font-size="12">in</tspan></text>
  
  <line x1="200" y1="120" x2="200" y2="155" stroke="black" fill="none" marker-start="url(#join)" />
  <use xlink:href="#cap" transform="translate(200, 160) rotate(90)" />
  <text x="213" y="165" text-anchor="start"><tspan font-style="italic">C</tspan><tspan dy="4" font-size="12">2</tspan></text>
  <line x1="200" y1="165" x2="200" y2="200" stroke="black" fill="none" />
  <use xlink:href="#gnd" x="200" y="200" />
  
  <line x1="120" y1="120" x2="120" y2="75" stroke="black" fill="none" marker-start="url(#join)" />
  <use xlink:href="#cap" transform="translate(120, 70) rotate(90)" />
  <text x="133" y="75" text-anchor="start"><tspan font-style="italic">C</tspan><tspan dy="4" font-size="12">1</tspan></text>
  <polyline points="120,65 120,20 320,20 320,80 300,80" stroke="black" fill="none" />
  <polyline points="220,60 200,60 200,20" stroke="black" fill="none" marker-end="url(#join)" />
  
  <line x1="320" y1="80" x2="340" y2="80" stroke="black" fill="none" marker-start="url(#join)" />
  <use xlink:href="#term" x="340" y="80" />
  <text x="348" y="85" text-anchor="start"><tspan font-style="italic">V</tspan><tspan dy="4" font-size="12">out</tspan></text>
</g>
</svg>
